HIERARCHY
ROOT hip
{
  OFFSET 0 0 0
  CHANNELS 6 Xposition Yposition Zposition Zrotation Yrotation Xrotation
  JOINT abdomen
  {
    OFFSET 0 20.6881 -0.73152
    CHANNELS 3 Zrotation Xrotation Yrotation
    JOINT chest
    {
      OFFSET 0 11.7043 -0.48768
      CHANNELS 3 Zrotation Xrotation Yrotation
      JOINT neck
      {
        OFFSET 0 22.1894 -2.19456
        CHANNELS 3 Zrotation Xrotation Yrotation
        JOINT head
        {
          OFFSET -0.24384 7.07133 1.2192
          CHANNELS 3 Zrotation Xrotation Yrotation
          JOINT leftEye
          {
            OFFSET 4.14528 8.04674 8.04672
            CHANNELS 3 Zrotation Xrotation Yrotation
            End Site
            {
              OFFSET 1 0 0
            }
          }
          JOINT rightEye
          {
            OFFSET -3.6576 8.04674 8.04672
            CHANNELS 3 Zrotation Xrotation Yrotation
            End Site
            {
              OFFSET 1 0 0
            }
          }
        }
      }
      JOINT rCollar
      {
        OFFSET -2.68224 19.2634 -4.8768
        CHANNELS 3 Zrotation Xrotation Yrotation
        JOINT rShldr
        {
          OFFSET -8.77824 -1.95073 1.46304
          CHANNELS 3 Zrotation Xrotation Yrotation
          JOINT rForeArm
          {
            OFFSET -28.1742 -1.7115 0.48768
            CHANNELS 3 Zrotation Xrotation Yrotation
            JOINT rHand
            {
              OFFSET -22.5879 0.773209 7.07136
              CHANNELS 3 Zrotation Xrotation Yrotation
              JOINT rThumb1
              {
                OFFSET -1.2192 -0.487915 3.41376
                CHANNELS 3 Zrotation Xrotation Yrotation
                JOINT rThumb2
                {
                  OFFSET -3.37035 -0.52449 3.41376
                  CHANNELS 3 Zrotation Xrotation Yrotation
                  End Site
                  {
                    OFFSET -1.78271 -1.18214 1.43049
                  }
                }
              }
              JOINT rIndex1
              {
                OFFSET -7.75947 0.938293 5.60832
                CHANNELS 3 Zrotation Xrotation Yrotation
                JOINT rIndex2
                {
                  OFFSET -2.54057 -0.884171 1.56538
                  CHANNELS 3 Zrotation Xrotation Yrotation
                  End Site
                  {
                    OFFSET -1.62519 -0.234802 1.16502
                  }
                }
              }
              JOINT rMid1
              {
                OFFSET -8.24714 1.18213 3.41376
                CHANNELS 3 Zrotation Xrotation Yrotation
                JOINT rMid2
                {
                  OFFSET -3.10165 -0.590103 1.0647
                  CHANNELS 3 Zrotation Xrotation Yrotation
                  End Site
                  {
                    OFFSET -2.48547 -0.328903 0.83742
                  }
                }
              }
              JOINT rRing1
              {
                OFFSET -8.82822 0.546677 1.51678
                CHANNELS 3 Zrotation Xrotation Yrotation
                JOINT rRing2
                {
                  OFFSET -2.60934 -0.819778 -0.0198488
                  CHANNELS 3 Zrotation Xrotation Yrotation
                  End Site
                  {
                    OFFSET -2.33842 -0.294052 0.168128
                  }
                }
              }
              JOINT rPinky1
              {
                OFFSET -8.27202 -0.0477905 -0.4584
                CHANNELS 3 Zrotation Xrotation Yrotation
                JOINT rPinky2
                {
                  OFFSET -1.82734 -0.647385 -0.700984
                  CHANNELS 3 Zrotation Xrotation Yrotation
                  End Site
                  {
                    OFFSET -1.69225 -0.51767 -0.607171
                  }
                }
              }
            }
          }
        }
      }
      JOINT lCollar
      {
        OFFSET 2.68224 19.2634 -4.8768
        CHANNELS 3 Zrotation Xrotation Yrotation
        JOINT lShldr
        {
          OFFSET 8.77824 -1.95073 1.46304
          CHANNELS 3 Zrotation Xrotation Yrotation
          JOINT lForeArm
          {
            OFFSET 28.1742 -1.7115 0.48768
            CHANNELS 3 Zrotation Xrotation Yrotation
            JOINT lHand
            {
              OFFSET 22.5879 0.773209 7.07136
              CHANNELS 3 Zrotation Xrotation Yrotation
              JOINT lThumb1
              {
                OFFSET 1.2192 -0.487915 3.41376
                CHANNELS 3 Zrotation Xrotation Yrotation
                JOINT lThumb2
                {
                  OFFSET 3.37035 -0.52449 3.41376
                  CHANNELS 3 Zrotation Xrotation Yrotation
                  End Site
                  {
                    OFFSET 1.78271 -1.18214 1.43049
                  }
                }
              }
              JOINT lIndex1
              {
                OFFSET 7.75947 0.938293 5.60832
                CHANNELS 3 Zrotation Xrotation Yrotation
                JOINT lIndex2
                {
                  OFFSET 2.54057 -0.884171 1.56538
                  CHANNELS 3 Zrotation Xrotation Yrotation
                  End Site
                  {
                    OFFSET 1.62519 -0.234802 1.16502
                  }
                }
              }
              JOINT lMid1
              {
                OFFSET 8.24714 1.18213 3.41376
                CHANNELS 3 Zrotation Xrotation Yrotation
                JOINT lMid2
                {
                  OFFSET 3.10165 -0.590103 1.0647
                  CHANNELS 3 Zrotation Xrotation Yrotation
                  End Site
                  {
                    OFFSET 2.48547 -0.328903 0.83742
                  }
                }
              }
              JOINT lRing1
              {
                OFFSET 8.82822 0.546677 1.51678
                CHANNELS 3 Zrotation Xrotation Yrotation
                JOINT lRing2
                {
                  OFFSET 2.60934 -0.819778 -0.0198488
                  CHANNELS 3 Zrotation Xrotation Yrotation
                  End Site
                  {
                    OFFSET 2.33842 -0.294052 0.168128
                  }
                }
              }
              JOINT lPinky1
              {
                OFFSET 8.27202 -0.0477905 -0.4584
                CHANNELS 3 Zrotation Xrotation Yrotation
                JOINT lPinky2
                {
                  OFFSET 1.82734 -0.647385 -0.700984
                  CHANNELS 3 Zrotation Xrotation Yrotation
                  End Site
                  {
                    OFFSET 1.69225 -0.51767 -0.607171
                  }
                }
              }
            }
          }
        }
      }
    }
  }
  JOINT rButtock
  {
    OFFSET -8.77824 4.35084 1.2192
    CHANNELS 3 Zrotation Xrotation Yrotation
    JOINT rThigh
    {
      OFFSET 0 -1.70687 -2.19456
      CHANNELS 3 Zrotation Xrotation Yrotation
      JOINT rShin
      {
        OFFSET 0 -36.8199 0.73152
        CHANNELS 3 Zrotation Xrotation Yrotation
        JOINT rFoot
        {
          OFFSET 0.73152 -45.1104 -5.12064
          CHANNELS 3 Zrotation Xrotation Yrotation
          End Site
          {
            OFFSET -1.1221 -3.69964 12.103
          }
        }
      }
    }
  }
  JOINT lButtock
  {
    OFFSET 8.77824 4.35084 1.2192
    CHANNELS 3 Zrotation Xrotation Yrotation
    JOINT lThigh
    {
      OFFSET 0 -1.70687 -2.19456
      CHANNELS 3 Zrotation Xrotation Yrotation
      JOINT lShin
      {
        OFFSET 0 -36.8199 0.73152
        CHANNELS 3 Zrotation Xrotation Yrotation
        JOINT lFoot
        {
          OFFSET -0.73152 -45.1104 -5.12064
          CHANNELS 3 Zrotation Xrotation Yrotation
          End Site
          {
            OFFSET 1.1221 -3.69964 12.103
          }
        }
      }
    }
  }
}
MOTION
Frames:	4
Frame Time:	0.03333
0.003536596428602934 -0.03681899234652519 -0.023966172710061073 10.240619033575058 -1.7179102823138237 -9.152707681059837 6.735205203294754 11.408620476722717 9.64026890695095 7.19154953956604 -6.263077408075333 -2.153078578412533 -3.3622723817825317 4.180075898766518 -0.0977475754916668 6.0237546265125275 8.959663063287735 -8.428432792425156 -10.073202922940254 -6.144164353609085 6.847345009446144 8.649212121963501 -2.7526039257645607 5.196336396038532 12.555663138628006 5.587106421589851 -5.81544890999794 -2.9686206579208374 -4.688270017504692 -4.105920530855656 0.1425826270133257 2.228460218757391 -5.150715373456478 -10.593173280358315 9.079835414886475 3.069184049963951 2.520574238151312 -5.758107975125313 11.684324741363525 3.5748448222875595 12.31431931257248 -6.14881195127964 0.051055848598480225 -6.255306378006935 1.0231443867087364 -0.9443970769643784 8.561210185289383 5.231528989970684 6.878360062837601 5.070485472679138 10.297219008207321 -3.784993216395378 -6.668267324566841 -0.08783966302871704 0.5667375214397907 8.96259069442749 -3.366112969815731 -10.149725005030632 -6.348541975021362 -6.260379105806351 -8.581737130880356 -7.984906733036041 8.070538267493248 6.7323097586631775 -5.852549225091934 -2.1961533464491367 4.127277284860611 6.38270728290081 -2.431008741259575 4.043760672211647 2.756224572658539 -6.359846815466881 5.589594170451164 -3.749467022716999 -5.131501704454422 -2.1021888591349125 11.091596111655235 -9.671649411320686 -1.150105744600296 -0.619405210018158 -0.23089821450412273 6.871464103460312 -3.141026683151722 7.104084715247154 6.6619399935007095 9.121212512254715 -2.151138838380575 7.557680457830429 3.4697548672556877 1.9481685385107994 -0.40259722620248795 -6.7355941236019135 -8.843124434351921 -8.476332351565361 9.108845517039299 8.395515382289886 0.280658807605505 -11.896102577447891 -6.39508031308651 5.085147097706795 -7.596642225980759 0.962148942053318 -6.901058256626129 7.375980913639069 -8.98477390408516 9.744945466518402 8.222380802035332 -8.204758688807487 0.4490162059664726 -10.668235570192337 8.588409125804901 1.380425188690424 -0.9657415933907032 -10.665684789419174 13.979449421167374 -9.959215745329857 1.8519739620387554 -5.773591697216034 8.778041303157806 10.108473300933838 0.9313422627747059 -6.220294162631035 7.561080828309059 7.9945579916238785 1.2913475185632706 -4.377885460853577 7.52277284860611 -0.7245471328496933 -12.107785195112228 -2.4220092594623566 -4.512602090835571 4.443265311419964
0.006904635112732649 -0.040205445140600204 -0.04874962382018566 9.073751494288445 -1.6118032671511173 -9.1482974588871 5.733294859528542 11.177931055426598 9.856349006295204 6.556909382343292 -7.293675988912582 -1.571688149124384 -3.19928091019392 4.677591808140278 0.20765481982380152 6.135441139340401 8.512049317359924 -7.7047231793403625 -10.22425152361393 -5.731876641511917 5.464124456048012 8.817656859755516 -1.97647824883461 5.397955700755119 13.409722745418549 6.129101067781448 -5.51077377051115 -2.6505646482110023 -6.152181476354599 -4.668683186173439 0.3047219105064869 1.6243784688413143 -4.983087703585625 -10.779564008116722 9.280852898955345 2.7774259261786938 2.1511507406830788 -6.597511321306229 13.93890917301178 3.9966191723942757 13.192026615142822 -5.692460909485817 -1.3253787159919739 -7.042648047208786 1.5849900618195534 -1.2375093810260296 8.504682630300522 4.626464881002903 7.4603913724422455 5.360274016857147 10.39056122303009 -2.684532478451729 -7.287545800209045 0.30934084206819534 0.43404201976954937 8.783945515751839 -2.8401971608400345 -9.798700958490372 -6.52008131146431 -6.584626659750938 -8.774581924080849 -8.597254380583763 9.020832180976868 6.253540813922882 -4.8897236958146095 -1.7289158888161182 4.8051804676651955 5.382918566465378 -2.1524266339838505 3.4785327315330505 2.647629976272583 -7.61858269572258 5.528733506798744 -4.120146632194519 -4.858252331614494 -2.2044693678617477 10.965305641293526 -9.641721323132515 0.4055282101035118 -0.6000109110027552 -0.2966490061953664 6.609602048993111 -3.1159942969679832 7.980338931083679 7.425832450389862 9.052816182374954 -2.3948411643505096 6.4522214233875275 3.787900395691395 2.560490034520626 0.15746209770441055 -6.607061326503754 -8.843782916665077 -8.68581622838974 9.145375192165375 8.436608836054802 0.004925960674881935 -12.139706164598465 -6.584157273173332 5.4950157925486565 -6.548835933208466 1.575413066893816 -7.111910060048103 5.76375737786293 -11.102112382650375 10.213361084461212 8.574589043855667 -7.177599370479584 1.4671998471021652 -11.601542383432388 9.20059248805046 0.3284250944852829 -2.111029587686062 -10.859282612800598 15.488654673099518 -11.334948241710663 2.394783329218626 -5.863331705331802 9.527011960744858 9.411293417215347 1.3318468630313873 -6.022219732403755 7.092207223176956 8.379148542881012 2.535587400197983 -3.737735375761986 7.430205792188644 1.0222039371728897 -13.051051050424576 -2.8125660493969917 -4.834076575934887 4.178866222500801
0.012122571934014559 -0.045712050050497055 -0.0733970645815134 7.997952997684479 0.0016535818576812744 -8.162247017025948 3.7127921730279922 9.467497766017914 10.552810728549957 5.5320969969034195 -7.796969711780548 -0.7422934658825397 -3.1539586186408997 3.7726999819278717 0.6570744048804045 7.862937971949577 8.862681090831757 -6.439128890633583 -9.55985963344574 -3.9908738806843758 3.788241371512413 8.871423751115799 -1.417979970574379 6.908642202615738 14.022765755653381 6.886212229728699 -5.544935390353203 -2.690691500902176 -6.15337036550045 -5.166066661477089 -0.4259473644196987 2.084661293774843 -4.680635780096054 -11.727945506572723 9.756735116243362 1.3864165730774403 2.1246998012065887 -7.666292488574982 15.541370809078217 4.511170797049999 12.455945312976837 -3.963058367371559 -2.026987262070179 -7.338277101516724 0.7845927402377129 -1.7456297390162945 7.48043417930603 3.4314150363206863 9.09662202000618 4.959451742470264 10.726532712578773 -2.637532465159893 -7.994763180613518 -0.5454644188284874 0.1803375268355012 8.783565983176231 -2.6067182421684265 -9.412881284952164 -7.308085486292839 -6.586718112230301 -8.073605373501778 -8.677091002464294 10.018603205680847 5.866192281246185 -3.5578151419758797 -1.0148654133081436 4.445969313383102 3.7733400240540504 -1.9676856324076653 4.409276023507118 1.7916834354400635 -8.000272437930107 5.710665732622147 -4.193042367696762 -4.06683336943388 -1.54534500092268 11.243933513760567 -10.092962756752968 0.34962695091962814 -0.20721372216939926 -0.04979345016181469 5.8486707508563995 -2.3481133952736855 8.31926554441452 8.82762998342514 9.45932574570179 -2.106160707771778 6.5132007747888565 5.0468820333480835 2.5804035924375057 0.3462279215455055 -6.178886890411377 -9.520372822880745 -9.057976752519608 10.353748574852943 8.454126343131065 0.48007819801568985 -12.953154444694519 -7.310082390904427 5.337163433432579 -5.663474276661873 0.9088053368031979 -6.6648803651332855 4.521562680602074 -12.548867762088776 10.832636207342148 9.874142110347748 -6.884660571813583 2.018911801278591 -12.667390555143356 9.808053150773048 -1.2662933394312859 -2.5563517212867737 -10.879428014159203 15.775970220565796 -13.648132234811783 4.722071215510368 -6.014498323202133 9.218270257115364 9.212344586849213 0.8261772897094488 -6.150000169873238 6.764308512210846 8.426217287778854 2.6563796773552895 -3.6294130235910416 8.515887558460236 2.7378474175930023 -13.76301795244217 -3.162139691412449 -5.795125141739845 3.865673393011093
0.02019313210621476 -0.05190602317452431 -0.09757433459162712 7.2454022616147995 2.217252440750599 -6.6109538823366165 1.5153327584266663 7.459146827459335 11.340594291687012 4.455371797084808 -8.34816500544548 0.32387204468250275 -3.4908638522028923 2.550356648862362 1.0325695015490055 10.442775785923004 9.540328457951546 -5.0045279413461685 -8.879906237125397 -1.851685792207718 2.3924513161182404 9.222457855939865 -0.7671888917684555 9.106013104319572 14.43334087729454 7.6895251125097275 -5.434345230460167 -2.6666267216205597 -5.23492768406868 -5.580299645662308 -1.5416023135185242 2.6333108358085155 -4.372588098049164 -13.176767528057098 9.938822910189629 -0.3142445906996727 2.3368643783032894 -8.512043952941895 16.82957947254181 5.440602824091911 11.201734319329262 -1.899547465145588 -2.3920751363039017 -7.5443438440561295 -0.24162805639207363 -2.1697361022233963 6.118814796209335 2.022661529481411 10.88105209171772 4.380509331822395 11.348416954278946 -2.830509692430496 -8.248952105641365 -1.6646530106663704 0.048946416936814785 8.598463386297226 -2.8616994246840477 -9.10029262304306 -8.073734790086746 -6.759929805994034 -6.660002768039703 -8.657442480325699 10.908654034137726 5.805088207125664 -2.336638569831848 -0.3274712339043617 3.614206239581108 1.917477697134018 -2.317831590771675 5.982759743928909 0.6048910226672888 -7.991196513175964 5.728710293769836 -4.188406839966774 -3.093801364302635 -0.6142686121165752 11.95649117231369 -10.626957714557648 -0.3357153385877609 0.029817279428243637 0.4037708602845669 5.3196704015135765 -1.6194004565477371 8.44800554215908 10.396289080381393 9.758870154619217 -1.547451876103878 7.069382295012474 6.406356990337372 2.4380922876298428 0.057789869606494904 -5.48757366836071 -10.537805780768394 -9.460754692554474 11.872914880514145 8.665609806776047 0.9070739708840847 -13.793900907039642 -8.0327258259058 4.7037359699606895 -5.090562477707863 -0.5093011166900396 -6.036206781864166 3.5470209270715714 -13.53928416967392 11.021628677845001 11.281069368124008 -6.73455074429512 2.808942385017872 -13.487772345542908 10.578357428312302 -3.038020133972168 -2.8122475370764732 -10.701049715280533 15.824154764413834 -15.503156036138535 7.915942445397377 -6.3761284947395325 8.293034881353378 9.188027679920197 -0.018186382949352264 -6.207577139139175 6.511616930365562 8.316698670387268 2.258160822093487 -3.7392501533031464 10.107275694608688 4.39019076526165 -14.188465923070908 -3.011443130671978 -6.8684908747673035 3.4562144055962563
